# 3ds Max Wavefront OBJ Exporter v0.97b - (c)2007 guruware
# File Created: 24.07.2018 01:53:11

mtllib Bench.mtl

#
# object Bench
#

v  70.1534 60.3586 -16.0697
v  70.1534 60.3586 -13.9113
v  70.1534 55.5540 -13.9113
v  70.1534 55.5540 -16.0697
v  65.2427 60.3586 -16.0697
v  65.2427 60.3586 -13.9113
v  65.2427 55.5540 -16.0697
v  0.0000 55.5540 -16.0697
v  0.0000 60.3586 -16.0697
v  65.2427 55.5540 -13.9113
v  0.0000 60.3586 -13.9113
v  0.0000 55.5540 -13.9113
v  70.1534 45.5540 -16.0697
v  65.2427 45.5540 -16.0697
v  70.1534 45.5540 -13.9113
v  65.2427 45.5540 -13.9113
v  70.1534 35.5540 -16.0697
v  65.2427 35.5540 -16.0697
v  70.1534 35.5540 -13.9113
v  65.2427 35.5540 -13.9113
v  70.1534 28.2540 -16.0697
v  65.2427 28.2540 -16.0697
v  70.1534 28.2540 -13.9113
v  65.2427 28.2540 -13.9113
v  70.1534 25.5540 -16.0697
v  65.2427 25.5540 -16.0697
v  70.1534 25.5540 -13.9113
v  65.2427 25.5539 16.0887
v  70.1534 25.5539 16.0887
v  70.1534 28.2539 16.0887
v  65.2427 28.2539 16.0887
v  65.2427 25.5540 -13.9113
v  70.1534 25.5540 -3.9113
v  65.2427 25.5540 -3.9113
v  70.1534 28.2540 -3.9113
v  65.2427 28.2540 -3.9113
v  70.1534 25.5539 6.0887
v  65.2427 25.5539 6.0887
v  70.1534 28.2539 6.0887
v  65.2427 28.2539 6.0887
v  70.1534 25.5539 13.3887
v  65.2427 25.5539 13.3887
v  70.1534 28.2539 13.3887
v  65.2427 28.2539 13.3887
v  70.1534 -0.0031 16.0887
v  65.2427 -0.0031 16.0887
v  65.2427 -0.0031 13.3887
v  70.1534 -0.0031 13.3887
v  65.2427 15.5539 16.0887
v  70.1534 15.5539 16.0887
v  65.2427 15.5539 13.3887
v  70.1534 15.5539 13.3887
v  65.2427 5.5539 16.0887
v  70.1534 5.5539 16.0887
v  65.2427 5.5539 13.3887
v  70.1534 5.5539 13.3887
v  65.2427 2.5809 16.0887
v  70.1534 2.5809 16.0887
v  65.2427 2.5809 13.3887
v  70.1534 2.5809 13.3887
v  70.1534 -0.0031 -15.8533
v  65.2427 -0.0031 -15.8533
v  65.2427 2.5809 -15.8533
v  70.1534 2.5809 -15.8533
v  65.2427 -0.0031 3.3887
v  70.1534 -0.0031 3.3887
v  65.2427 2.5809 3.3887
v  70.1534 2.5809 3.3887
v  65.2427 -0.0031 -6.6113
v  70.1534 -0.0031 -6.6113
v  65.2427 2.5809 -6.6113
v  70.1534 2.5809 -6.6113
v  65.2427 -0.0031 -13.7918
v  70.1534 -0.0031 -13.7918
v  65.2427 2.5809 -13.7918
v  70.1534 2.5809 -13.7918
v  -70.1534 55.5540 -13.9113
v  -70.1534 60.3586 -13.9113
v  -70.1534 60.3586 -16.0697
v  -70.1534 55.5540 -16.0697
v  -65.2427 60.3586 -13.9113
v  -65.2427 60.3586 -16.0697
v  -65.2427 55.5540 -16.0697
v  -65.2427 55.5540 -13.9113
v  -65.2427 45.5540 -16.0697
v  -70.1534 45.5540 -16.0697
v  -70.1534 45.5540 -13.9113
v  -65.2427 45.5540 -13.9113
v  -65.2427 35.5540 -16.0697
v  -70.1534 35.5540 -16.0697
v  -70.1534 35.5540 -13.9113
v  -65.2427 35.5540 -13.9113
v  -65.2427 28.2540 -16.0697
v  -70.1534 28.2540 -16.0697
v  -70.1534 28.2540 -13.9113
v  -65.2427 28.2540 -13.9113
v  -65.2427 25.5540 -16.0697
v  -70.1534 25.5540 -16.0697
v  -70.1534 25.5540 -13.9113
v  -70.1534 28.2539 16.0887
v  -70.1534 25.5539 16.0887
v  -65.2427 25.5539 16.0887
v  -65.2427 28.2539 16.0887
v  -65.2427 25.5540 -13.9113
v  -65.2427 25.5540 -3.9113
v  -70.1534 25.5540 -3.9113
v  -70.1534 28.2540 -3.9113
v  -65.2427 28.2540 -3.9113
v  -65.2427 25.5539 6.0887
v  -70.1534 25.5539 6.0887
v  -70.1534 28.2539 6.0887
v  -65.2427 28.2539 6.0887
v  -65.2427 25.5539 13.3887
v  -70.1534 25.5539 13.3887
v  -70.1534 28.2539 13.3887
v  -65.2427 28.2539 13.3887
v  -65.2427 -0.0031 13.3887
v  -65.2427 -0.0031 16.0887
v  -70.1534 -0.0031 16.0887
v  -70.1534 -0.0031 13.3887
v  -70.1534 15.5539 16.0887
v  -65.2427 15.5539 16.0887
v  -65.2427 15.5539 13.3887
v  -70.1534 15.5539 13.3887
v  -70.1534 5.5539 16.0887
v  -65.2427 5.5539 16.0887
v  -65.2427 5.5539 13.3887
v  -70.1534 5.5539 13.3887
v  -70.1534 2.5809 16.0887
v  -65.2427 2.5809 16.0887
v  -65.2427 2.5809 13.3887
v  -70.1534 2.5809 13.3887
v  -65.2427 2.5809 -15.8533
v  -65.2427 -0.0031 -15.8533
v  -70.1534 -0.0031 -15.8533
v  -70.1534 2.5809 -15.8533
v  -70.1534 -0.0031 3.3887
v  -65.2427 -0.0031 3.3887
v  -65.2427 2.5809 3.3887
v  -70.1534 2.5809 3.3887
v  -70.1534 -0.0031 -6.6113
v  -65.2427 -0.0031 -6.6113
v  -65.2427 2.5809 -6.6113
v  -70.1534 2.5809 -6.6113
v  -70.1534 -0.0031 -13.7918
v  -65.2427 -0.0031 -13.7918
v  -65.2427 2.5809 -13.7918
v  -70.1534 2.5809 -13.7918
v  59.3046 22.2828 3.5551
v  65.3046 22.2828 3.5551
v  65.3046 22.2828 9.5551
v  59.3046 22.2828 9.5551
v  65.3046 28.2828 9.5551
v  65.3046 28.2828 3.5551
v  59.3046 28.2828 3.5551
v  59.3046 28.2828 9.5551
v  -65.2254 22.2828 9.5551
v  -65.2254 28.2828 9.5551
v  -65.2254 28.2828 3.5551
v  -65.2254 22.2828 3.5551
v  59.3046 22.2828 10.0851
v  65.3046 22.2828 10.0851
v  65.3046 22.2828 16.0851
v  59.3046 22.2828 16.0851
v  65.3046 28.2828 16.0851
v  65.3046 28.2828 10.0851
v  59.3046 28.2828 10.0851
v  59.3046 28.2828 16.0851
v  -65.2254 22.2828 16.0851
v  -65.2254 28.2828 16.0851
v  -65.2254 28.2828 10.0851
v  -65.2254 22.2828 10.0851
v  59.3046 22.2828 -2.9748
v  65.3046 22.2828 -2.9748
v  65.3046 22.2828 3.0252
v  59.3046 22.2828 3.0252
v  65.3046 28.2828 3.0252
v  65.3046 28.2828 -2.9748
v  59.3046 28.2828 -2.9748
v  59.3046 28.2828 3.0252
v  -65.2254 22.2828 3.0252
v  -65.2254 28.2828 3.0252
v  -65.2254 28.2828 -2.9748
v  -65.2254 22.2828 -2.9748
v  59.3046 22.2828 -9.5048
v  65.3046 22.2828 -9.5048
v  65.3046 22.2828 -3.5048
v  59.3046 22.2828 -3.5048
v  65.3046 28.2828 -3.5048
v  65.3046 28.2828 -9.5048
v  59.3046 28.2828 -9.5048
v  59.3046 28.2828 -3.5048
v  -65.2254 22.2828 -3.5048
v  -65.2254 28.2828 -3.5048
v  -65.2254 28.2828 -9.5048
v  -65.2254 22.2828 -9.5048
v  59.3046 33.6397 -16.0887
v  65.3046 33.6397 -16.0887
v  65.3046 33.6397 -13.9927
v  59.3046 33.6397 -13.9927
v  65.3046 39.6397 -13.9927
v  65.3046 39.6397 -16.0887
v  59.3046 39.6397 -16.0887
v  59.3046 39.6397 -13.9927
v  -65.2254 33.6397 -13.9927
v  -65.2254 39.6397 -13.9927
v  -65.2254 39.6397 -16.0887
v  -65.2254 33.6397 -16.0887
v  59.3046 41.1460 -16.0887
v  65.3046 41.1460 -16.0887
v  65.3046 41.1460 -13.9927
v  59.3046 41.1460 -13.9927
v  65.3046 47.1460 -13.9927
v  65.3046 47.1460 -16.0887
v  59.3046 47.1460 -16.0887
v  59.3046 47.1460 -13.9927
v  -65.2254 41.1460 -13.9927
v  -65.2254 47.1460 -13.9927
v  -65.2254 47.1460 -16.0887
v  -65.2254 41.1460 -16.0887
v  59.3046 48.6524 -16.0887
v  65.3046 48.6524 -16.0887
v  65.3046 48.6524 -13.9927
v  59.3046 48.6524 -13.9927
v  65.3046 54.6524 -13.9927
v  65.3046 54.6524 -16.0887
v  59.3046 54.6524 -16.0887
v  59.3046 54.6524 -13.9927
v  -65.2254 48.6524 -13.9927
v  -65.2254 54.6524 -13.9927
v  -65.2254 54.6524 -16.0887
v  -65.2254 48.6524 -16.0887
# 232 vertices

vn 0.5774 0.5774 -0.5774
vn 0.5774 0.5774 0.5774
vn 0.7071 -0.0000 0.7071
vn 0.7071 0.0000 -0.7071
vn 0.0000 0.7071 -0.7071
vn 0.0000 0.7071 0.7071
vn -0.3015 -0.3015 -0.9045
vn 0.0000 -0.7071 -0.7071
vn -0.3015 -0.3015 0.9045
vn 0.0000 -0.7071 0.7071
vn -0.7071 0.0000 -0.7071
vn -0.7071 -0.0000 0.7071
vn 0.9045 0.3015 0.3015
vn -0.9045 0.3015 0.3015
vn 0.7060 -0.0033 -0.7082
vn -0.7060 -0.0033 -0.7082
vn 0.9051 -0.2998 0.3014
vn -0.5774 0.5774 0.5774
vn -0.9051 -0.2998 0.3014
vn 0.7071 -0.7071 -0.0000
vn -0.7071 -0.7071 -0.0000
vn 0.7071 0.7071 0.0000
vn -0.7071 0.7071 0.0000
vn 0.9045 -0.3015 -0.3015
vn -0.9045 -0.3015 -0.3015
vn 0.5774 -0.5774 0.5774
vn -0.5774 -0.5774 0.5774
vn -0.9045 0.3015 -0.3015
vn 0.9045 0.3015 -0.3015
vn 0.5774 -0.5774 -0.5774
vn -0.5774 -0.5774 -0.5774
vn -0.7082 -0.0033 -0.7060
vn 0.7082 -0.0033 -0.7060
vn -0.9039 0.3032 0.3016
vn 0.9039 0.3032 0.3016
vn -0.5774 0.5774 -0.5774
vn 0.3015 -0.3015 -0.9045
vn 0.3015 -0.3015 0.9045
vn 0.5774 -0.5774 0.5773
vn 0.5774 0.5774 -0.5773
vn -0.5774 -0.5774 0.5773
vn -0.5774 0.5774 -0.5773
# 42 vertex normals

vt 0.9391 0.8445 0.0000
vt 0.9318 0.8444 0.0000
vt 0.9319 0.8280 0.0000
vt 0.9393 0.8281 0.0000
vt 0.4827 0.1632 0.0000
vt 0.4827 0.1558 0.0000
vt 0.4994 0.1558 0.0000
vt 0.4994 0.1632 0.0000
vt 0.0368 0.9797 0.0000
vt 0.0368 0.9632 0.0000
vt 0.2597 0.9634 0.0000
vt 0.2597 0.9798 0.0000
vt 0.4828 0.1132 0.0000
vt 0.4828 0.1297 0.0000
vt 0.2597 0.1297 0.0000
vt 0.2597 0.1132 0.0000
vt 0.9434 0.4142 0.0000
vt 0.9434 0.4215 0.0000
vt 0.7204 0.4215 0.0000
vt 0.7204 0.4142 0.0000
vt 0.2597 0.1632 0.0000
vt 0.2597 0.1558 0.0000
vt 0.0200 0.9797 0.0000
vt 0.0200 0.9632 0.0000
vt 0.4996 0.1132 0.0000
vt 0.4996 0.1297 0.0000
vt 0.0200 0.9290 0.0000
vt 0.0368 0.9291 0.0000
vt 0.9322 0.7939 0.0000
vt 0.9396 0.7940 0.0000
vt 0.4828 0.0791 0.0000
vt 0.4996 0.0791 0.0000
vt 0.5368 0.9542 0.0000
vt 0.5372 0.9200 0.0000
vt 0.5446 0.9201 0.0000
vt 0.5441 0.9543 0.0000
vt 0.0200 0.8949 0.0000
vt 0.0368 0.8949 0.0000
vt 0.9325 0.7598 0.0000
vt 0.9399 0.7598 0.0000
vt 0.4828 0.0449 0.0000
vt 0.4996 0.0449 0.0000
vt 0.5376 0.8859 0.0000
vt 0.5450 0.8860 0.0000
vt 0.0200 0.8699 0.0000
vt 0.0368 0.8699 0.0000
vt 0.9327 0.7348 0.0000
vt 0.9401 0.7349 0.0000
vt 0.4828 0.0200 0.0000
vt 0.4996 0.0200 0.0000
vt 0.5378 0.8611 0.0000
vt 0.5453 0.8611 0.0000
vt 0.0200 0.8607 0.0000
vt 0.0368 0.8607 0.0000
vt 0.9328 0.7256 0.0000
vt 0.9402 0.7257 0.0000
vt 0.0419 0.8520 0.0000
vt 0.0587 0.8520 0.0000
vt 0.0587 0.8612 0.0000
vt 0.0419 0.8612 0.0000
vt 0.5379 0.8518 0.0000
vt 0.5453 0.8519 0.0000
vt 0.2127 0.8579 0.0000
vt 0.2131 0.8237 0.0000
vt 0.2298 0.8238 0.0000
vt 0.2295 0.8581 0.0000
vt 0.8986 0.7346 0.0000
vt 0.8986 0.7253 0.0000
vt 0.1574 0.9090 0.0000
vt 0.1579 0.8748 0.0000
vt 0.1747 0.8750 0.0000
vt 0.1741 0.9093 0.0000
vt 0.5795 0.8522 0.0000
vt 0.5794 0.8615 0.0000
vt 0.2133 0.7895 0.0000
vt 0.2301 0.7897 0.0000
vt 0.8643 0.7343 0.0000
vt 0.8644 0.7250 0.0000
vt 0.1584 0.8406 0.0000
vt 0.1752 0.8409 0.0000
vt 0.6137 0.8527 0.0000
vt 0.6136 0.8618 0.0000
vt 0.2136 0.7645 0.0000
vt 0.2303 0.7647 0.0000
vt 0.8395 0.7341 0.0000
vt 0.8395 0.7249 0.0000
vt 0.1588 0.8157 0.0000
vt 0.1755 0.8159 0.0000
vt 0.6386 0.8529 0.0000
vt 0.6385 0.8622 0.0000
vt 0.0957 0.8064 0.0000
vt 0.1125 0.8067 0.0000
vt 0.1124 0.8159 0.0000
vt 0.0956 0.8157 0.0000
vt 0.8302 0.7340 0.0000
vt 0.8303 0.7248 0.0000
vt 0.1589 0.8064 0.0000
vt 0.1757 0.8067 0.0000
vt 0.6479 0.8530 0.0000
vt 0.6478 0.8623 0.0000
vt 0.0419 0.8177 0.0000
vt 0.0587 0.8177 0.0000
vt 0.6390 0.8187 0.0000
vt 0.6482 0.8188 0.0000
vt 0.3353 0.8430 0.0000
vt 0.3360 0.8089 0.0000
vt 0.3528 0.8091 0.0000
vt 0.3522 0.8434 0.0000
vt 0.8306 0.6907 0.0000
vt 0.8398 0.6907 0.0000
vt 0.0419 0.7836 0.0000
vt 0.0587 0.7836 0.0000
vt 0.6393 0.7845 0.0000
vt 0.6486 0.7846 0.0000
vt 0.3367 0.7747 0.0000
vt 0.3535 0.7750 0.0000
vt 0.8308 0.6565 0.0000
vt 0.8401 0.6565 0.0000
vt 0.0419 0.7734 0.0000
vt 0.0587 0.7734 0.0000
vt 0.6394 0.7744 0.0000
vt 0.6487 0.7745 0.0000
vt 0.3369 0.7645 0.0000
vt 0.3537 0.7649 0.0000
vt 0.8309 0.6463 0.0000
vt 0.8402 0.6464 0.0000
vt 0.0419 0.7645 0.0000
vt 0.0587 0.7645 0.0000
vt 0.6396 0.7656 0.0000
vt 0.6488 0.7657 0.0000
vt 0.0201 0.7733 0.0000
vt 0.0368 0.7733 0.0000
vt 0.0368 0.7822 0.0000
vt 0.0201 0.7821 0.0000
vt 0.8310 0.6375 0.0000
vt 0.8402 0.6375 0.0000
vt 0.1119 0.8501 0.0000
vt 0.0951 0.8498 0.0000
vt 0.6053 0.7740 0.0000
vt 0.6054 0.7652 0.0000
vt 0.2513 0.8215 0.0000
vt 0.2520 0.8556 0.0000
vt 0.2351 0.8558 0.0000
vt 0.2346 0.8217 0.0000
vt 0.8744 0.6378 0.0000
vt 0.8743 0.6467 0.0000
vt 0.1113 0.8843 0.0000
vt 0.0946 0.8840 0.0000
vt 0.5711 0.7737 0.0000
vt 0.5712 0.7648 0.0000
vt 0.2525 0.8898 0.0000
vt 0.2356 0.8900 0.0000
vt 0.9085 0.6380 0.0000
vt 0.9085 0.6469 0.0000
vt 0.1110 0.9088 0.0000
vt 0.0942 0.9085 0.0000
vt 0.5466 0.7734 0.0000
vt 0.5467 0.7646 0.0000
vt 0.2528 0.9143 0.0000
vt 0.2361 0.9145 0.0000
vt 0.9331 0.6382 0.0000
vt 0.9330 0.6471 0.0000
vt 0.1109 0.9159 0.0000
vt 0.0940 0.9156 0.0000
vt 0.5395 0.7733 0.0000
vt 0.5396 0.7645 0.0000
vt 0.9401 0.6383 0.0000
vt 0.9400 0.6471 0.0000
vt 0.6806 0.6375 0.0000
vt 0.6806 0.7161 0.0000
vt 0.6638 0.7161 0.0000
vt 0.6638 0.6375 0.0000
vt 0.5313 0.8275 0.0000
vt 0.5313 0.8439 0.0000
vt 0.5240 0.8439 0.0000
vt 0.5240 0.8275 0.0000
vt 0.0200 0.1558 0.0000
vt 0.0368 0.1558 0.0000
vt 0.0368 0.1632 0.0000
vt 0.0200 0.1631 0.0000
vt 0.4827 0.9636 0.0000
vt 0.4827 0.9800 0.0000
vt 0.0368 0.1297 0.0000
vt 0.0368 0.1132 0.0000
vt 0.4974 0.4215 0.0000
vt 0.4974 0.4142 0.0000
vt 0.4994 0.9636 0.0000
vt 0.4994 0.9800 0.0000
vt 0.0200 0.1297 0.0000
vt 0.0200 0.1132 0.0000
vt 0.4827 0.9294 0.0000
vt 0.4995 0.9295 0.0000
vt 0.5238 0.7935 0.0000
vt 0.5312 0.7935 0.0000
vt 0.0200 0.0791 0.0000
vt 0.0368 0.0791 0.0000
vt 0.9197 0.9421 0.0000
vt 0.9271 0.9421 0.0000
vt 0.9271 0.9762 0.0000
vt 0.9197 0.9762 0.0000
vt 0.4827 0.8952 0.0000
vt 0.4995 0.8952 0.0000
vt 0.5237 0.7594 0.0000
vt 0.5311 0.7594 0.0000
vt 0.0200 0.0449 0.0000
vt 0.0368 0.0449 0.0000
vt 0.9197 0.9079 0.0000
vt 0.9270 0.9079 0.0000
vt 0.4827 0.8703 0.0000
vt 0.4995 0.8703 0.0000
vt 0.5237 0.7344 0.0000
vt 0.5310 0.7344 0.0000
vt 0.0200 0.0200 0.0000
vt 0.0368 0.0200 0.0000
vt 0.9197 0.8831 0.0000
vt 0.9270 0.8830 0.0000
vt 0.4827 0.8611 0.0000
vt 0.4995 0.8611 0.0000
vt 0.5237 0.7253 0.0000
vt 0.5310 0.7253 0.0000
vt 0.9601 0.9667 0.0000
vt 0.9598 0.9574 0.0000
vt 0.9766 0.9569 0.0000
vt 0.9769 0.9662 0.0000
vt 0.9197 0.8738 0.0000
vt 0.9270 0.8738 0.0000
vt 0.2565 0.8237 0.0000
vt 0.2733 0.8237 0.0000
vt 0.2733 0.8579 0.0000
vt 0.2565 0.8579 0.0000
vt 0.5652 0.7252 0.0000
vt 0.5652 0.7343 0.0000
vt 0.1898 0.8748 0.0000
vt 0.2065 0.8748 0.0000
vt 0.2065 0.9090 0.0000
vt 0.1898 0.9090 0.0000
vt 0.8854 0.8831 0.0000
vt 0.8854 0.8738 0.0000
vt 0.2565 0.7895 0.0000
vt 0.2733 0.7895 0.0000
vt 0.5993 0.7251 0.0000
vt 0.5993 0.7343 0.0000
vt 0.1898 0.8406 0.0000
vt 0.2065 0.8406 0.0000
vt 0.8512 0.8831 0.0000
vt 0.8512 0.8738 0.0000
vt 0.2565 0.7645 0.0000
vt 0.2733 0.7645 0.0000
vt 0.6243 0.7250 0.0000
vt 0.6243 0.7343 0.0000
vt 0.1898 0.8157 0.0000
vt 0.2065 0.8157 0.0000
vt 0.8263 0.8831 0.0000
vt 0.8262 0.8738 0.0000
vt 0.1265 0.8157 0.0000
vt 0.1265 0.8064 0.0000
vt 0.1433 0.8064 0.0000
vt 0.1433 0.8157 0.0000
vt 0.6336 0.7250 0.0000
vt 0.6336 0.7343 0.0000
vt 0.1898 0.8064 0.0000
vt 0.2065 0.8064 0.0000
vt 0.8171 0.8831 0.0000
vt 0.8171 0.8738 0.0000
vt 0.9588 0.9233 0.0000
vt 0.9756 0.9228 0.0000
vt 0.8171 0.8396 0.0000
vt 0.8263 0.8396 0.0000
vt 0.3791 0.8088 0.0000
vt 0.3959 0.8088 0.0000
vt 0.3959 0.8431 0.0000
vt 0.3791 0.8431 0.0000
vt 0.6242 0.6908 0.0000
vt 0.6335 0.6908 0.0000
vt 0.9578 0.8892 0.0000
vt 0.9746 0.8887 0.0000
vt 0.8171 0.8055 0.0000
vt 0.8263 0.8055 0.0000
vt 0.3791 0.7747 0.0000
vt 0.3959 0.7747 0.0000
vt 0.6241 0.6566 0.0000
vt 0.6334 0.6566 0.0000
vt 0.9575 0.8790 0.0000
vt 0.9742 0.8785 0.0000
vt 0.8171 0.7952 0.0000
vt 0.8263 0.7952 0.0000
vt 0.3791 0.7645 0.0000
vt 0.3959 0.7645 0.0000
vt 0.6241 0.6464 0.0000
vt 0.6334 0.6463 0.0000
vt 0.9572 0.8702 0.0000
vt 0.9740 0.8696 0.0000
vt 0.8171 0.7864 0.0000
vt 0.8263 0.7864 0.0000
vt 0.4827 0.7825 0.0000
vt 0.4827 0.7737 0.0000
vt 0.4996 0.7737 0.0000
vt 0.4996 0.7826 0.0000
vt 0.6241 0.6375 0.0000
vt 0.6334 0.6375 0.0000
vt 0.1433 0.8498 0.0000
vt 0.1265 0.8498 0.0000
vt 0.8605 0.7864 0.0000
vt 0.8605 0.7952 0.0000
vt 0.3127 0.7988 0.0000
vt 0.2959 0.7988 0.0000
vt 0.2959 0.7645 0.0000
vt 0.3127 0.7645 0.0000
vt 0.5899 0.6465 0.0000
vt 0.5899 0.6376 0.0000
vt 0.1433 0.8840 0.0000
vt 0.1265 0.8840 0.0000
vt 0.8947 0.7864 0.0000
vt 0.8947 0.7953 0.0000
vt 0.3127 0.8329 0.0000
vt 0.2959 0.8329 0.0000
vt 0.5557 0.6466 0.0000
vt 0.5557 0.6378 0.0000
vt 0.1433 0.9086 0.0000
vt 0.1265 0.9086 0.0000
vt 0.9192 0.7865 0.0000
vt 0.9192 0.7953 0.0000
vt 0.3127 0.8575 0.0000
vt 0.2959 0.8575 0.0000
vt 0.5312 0.6467 0.0000
vt 0.5312 0.6379 0.0000
vt 0.1433 0.9157 0.0000
vt 0.1265 0.9157 0.0000
vt 0.9263 0.7865 0.0000
vt 0.9263 0.7953 0.0000
vt 0.5241 0.6467 0.0000
vt 0.5241 0.6379 0.0000
vt 0.4353 0.8431 0.0000
vt 0.4185 0.8431 0.0000
vt 0.4185 0.7645 0.0000
vt 0.4353 0.7645 0.0000
vt 0.9230 0.2390 0.0000
vt 0.9435 0.2390 0.0000
vt 0.9435 0.2595 0.0000
vt 0.9230 0.2595 0.0000
vt 0.4663 0.1864 0.0000
vt 0.4663 0.2069 0.0000
vt 0.4457 0.2069 0.0000
vt 0.4457 0.1864 0.0000
vt 0.4661 0.4492 0.0000
vt 0.4661 0.4697 0.0000
vt 0.4456 0.4697 0.0000
vt 0.4456 0.4492 0.0000
vt 0.1237 0.0375 0.0000
vt 0.1237 0.0580 0.0000
vt 0.1032 0.0580 0.0000
vt 0.1032 0.0375 0.0000
vt 0.9536 0.0843 0.0000
vt 0.9536 0.0638 0.0000
vt 0.9741 0.0638 0.0000
vt 0.9741 0.0843 0.0000
vt 0.3296 0.0375 0.0000
vt 0.3296 0.0580 0.0000
vt 0.3091 0.0580 0.0000
vt 0.3091 0.0375 0.0000
vt 0.4974 0.2595 0.0000
vt 0.4974 0.2390 0.0000
vt 0.0200 0.4697 0.0000
vt 0.0200 0.4492 0.0000
vt 0.0200 0.2069 0.0000
vt 0.0200 0.1864 0.0000
vt 0.5280 0.0843 0.0000
vt 0.5280 0.0638 0.0000
vt 0.4456 0.3616 0.0000
vt 0.4661 0.3616 0.0000
vt 0.4661 0.3821 0.0000
vt 0.4456 0.3821 0.0000
vt 0.9435 0.3266 0.0000
vt 0.9435 0.3471 0.0000
vt 0.9230 0.3471 0.0000
vt 0.9230 0.3266 0.0000
vt 0.9741 0.1076 0.0000
vt 0.9741 0.1281 0.0000
vt 0.9536 0.1281 0.0000
vt 0.9536 0.1076 0.0000
vt 0.2858 0.0375 0.0000
vt 0.2858 0.0580 0.0000
vt 0.2653 0.0580 0.0000
vt 0.2653 0.0375 0.0000
vt 0.4456 0.6011 0.0000
vt 0.4456 0.5806 0.0000
vt 0.4661 0.5806 0.0000
vt 0.4661 0.6011 0.0000
vt 0.2392 0.0522 0.0000
vt 0.2392 0.0727 0.0000
vt 0.2186 0.0727 0.0000
vt 0.2186 0.0522 0.0000
vt 0.0200 0.3821 0.0000
vt 0.0200 0.3616 0.0000
vt 0.5280 0.1281 0.0000
vt 0.5280 0.1076 0.0000
vt 0.4974 0.3471 0.0000
vt 0.4974 0.3266 0.0000
vt 0.0200 0.6011 0.0000
vt 0.0200 0.5806 0.0000
vt 0.4456 0.6244 0.0000
vt 0.4661 0.6244 0.0000
vt 0.4661 0.6449 0.0000
vt 0.4456 0.6449 0.0000
vt 0.9741 0.0200 0.0000
vt 0.9741 0.0405 0.0000
vt 0.9536 0.0405 0.0000
vt 0.9536 0.0200 0.0000
vt 0.4663 0.2740 0.0000
vt 0.4663 0.2945 0.0000
vt 0.4457 0.2945 0.0000
vt 0.4457 0.2740 0.0000
vt 0.4172 0.0580 0.0000
vt 0.3966 0.0580 0.0000
vt 0.3966 0.0375 0.0000
vt 0.4172 0.0375 0.0000
vt 0.9536 0.1719 0.0000
vt 0.9536 0.1514 0.0000
vt 0.9741 0.1514 0.0000
vt 0.9741 0.1719 0.0000
vt 0.2046 0.0522 0.0000
vt 0.2046 0.0727 0.0000
vt 0.1840 0.0727 0.0000
vt 0.1840 0.0522 0.0000
vt 0.0200 0.6449 0.0000
vt 0.0200 0.6244 0.0000
vt 0.0200 0.2945 0.0000
vt 0.0200 0.2740 0.0000
vt 0.5280 0.0405 0.0000
vt 0.5280 0.0200 0.0000
vt 0.5280 0.1719 0.0000
vt 0.5280 0.1514 0.0000
vt 0.9230 0.1952 0.0000
vt 0.9435 0.1952 0.0000
vt 0.9435 0.2157 0.0000
vt 0.9230 0.2157 0.0000
vt 0.9435 0.3704 0.0000
vt 0.9435 0.3909 0.0000
vt 0.9230 0.3909 0.0000
vt 0.9230 0.3704 0.0000
vt 0.4661 0.7120 0.0000
vt 0.4661 0.7325 0.0000
vt 0.4456 0.7325 0.0000
vt 0.4456 0.7120 0.0000
vt 0.2989 0.9077 0.0000
vt 0.2784 0.9077 0.0000
vt 0.2784 0.8872 0.0000
vt 0.2989 0.8872 0.0000
vt 0.4456 0.6887 0.0000
vt 0.4456 0.6682 0.0000
vt 0.4661 0.6682 0.0000
vt 0.4661 0.6887 0.0000
vt 0.3734 0.0375 0.0000
vt 0.3734 0.0580 0.0000
vt 0.3528 0.0580 0.0000
vt 0.3528 0.0375 0.0000
vt 0.4974 0.2157 0.0000
vt 0.4974 0.1952 0.0000
vt 0.0200 0.7325 0.0000
vt 0.0200 0.7120 0.0000
vt 0.4974 0.3909 0.0000
vt 0.4974 0.3704 0.0000
vt 0.0200 0.6887 0.0000
vt 0.0200 0.6682 0.0000
vt 0.9218 0.5368 0.0000
vt 0.9430 0.5368 0.0000
vt 0.9430 0.5442 0.0000
vt 0.9218 0.5442 0.0000
vt 0.9431 0.4449 0.0000
vt 0.9431 0.4522 0.0000
vt 0.9219 0.4522 0.0000
vt 0.9219 0.4448 0.0000
vt 0.4661 0.5368 0.0000
vt 0.4661 0.5573 0.0000
vt 0.4456 0.5573 0.0000
vt 0.4456 0.5368 0.0000
vt 0.1515 0.0522 0.0000
vt 0.1700 0.0611 0.0000
vt 0.1668 0.0675 0.0000
vt 0.1483 0.0586 0.0000
vt 0.4456 0.5135 0.0000
vt 0.4456 0.4930 0.0000
vt 0.4661 0.4930 0.0000
vt 0.4661 0.5135 0.0000
vt 0.4476 0.0375 0.0000
vt 0.4476 0.0580 0.0000
vt 0.4404 0.0580 0.0000
vt 0.4404 0.0375 0.0000
vt 0.4974 0.5442 0.0000
vt 0.4974 0.5368 0.0000
vt 0.0200 0.5573 0.0000
vt 0.0200 0.5368 0.0000
vt 0.4974 0.4522 0.0000
vt 0.4974 0.4449 0.0000
vt 0.0200 0.5135 0.0000
vt 0.0200 0.4930 0.0000
vt 0.9218 0.4755 0.0000
vt 0.9430 0.4756 0.0000
vt 0.9430 0.4829 0.0000
vt 0.9218 0.4829 0.0000
vt 0.9430 0.5674 0.0000
vt 0.9430 0.5749 0.0000
vt 0.9218 0.5749 0.0000
vt 0.9218 0.5674 0.0000
vt 0.4661 0.3178 0.0000
vt 0.4661 0.3383 0.0000
vt 0.4456 0.3383 0.0000
vt 0.4456 0.3178 0.0000
vt 0.1645 0.9233 0.0000
vt 0.1645 0.9438 0.0000
vt 0.1574 0.9438 0.0000
vt 0.1574 0.9233 0.0000
vt 0.4457 0.2507 0.0000
vt 0.4457 0.2302 0.0000
vt 0.4663 0.2302 0.0000
vt 0.4663 0.2507 0.0000
vt 0.0491 0.0375 0.0000
vt 0.0491 0.0580 0.0000
vt 0.0419 0.0580 0.0000
vt 0.0419 0.0375 0.0000
vt 0.4974 0.4829 0.0000
vt 0.4974 0.4755 0.0000
vt 0.0200 0.3383 0.0000
vt 0.0200 0.3178 0.0000
vt 0.4974 0.5749 0.0000
vt 0.4974 0.5674 0.0000
vt 0.0200 0.2507 0.0000
vt 0.0200 0.2302 0.0000
vt 0.9218 0.5061 0.0000
vt 0.9430 0.5061 0.0000
vt 0.9430 0.5136 0.0000
vt 0.9218 0.5136 0.0000
vt 0.9430 0.5981 0.0000
vt 0.9430 0.6055 0.0000
vt 0.9218 0.6055 0.0000
vt 0.9218 0.5981 0.0000
vt 0.9435 0.2828 0.0000
vt 0.9435 0.3033 0.0000
vt 0.9230 0.3033 0.0000
vt 0.9230 0.2828 0.0000
vt 0.0797 0.0375 0.0000
vt 0.0797 0.0580 0.0000
vt 0.0726 0.0580 0.0000
vt 0.0726 0.0375 0.0000
vt 0.4456 0.4259 0.0000
vt 0.4456 0.4054 0.0000
vt 0.4661 0.4054 0.0000
vt 0.4661 0.4259 0.0000
vt 0.2604 0.0522 0.0000
vt 0.2604 0.0727 0.0000
vt 0.2532 0.0727 0.0000
vt 0.2532 0.0522 0.0000
vt 0.4974 0.5136 0.0000
vt 0.4974 0.5061 0.0000
vt 0.4974 0.3033 0.0000
vt 0.4974 0.2828 0.0000
vt 0.4974 0.6055 0.0000
vt 0.4974 0.5981 0.0000
vt 0.0200 0.4259 0.0000
vt 0.0200 0.4054 0.0000
# 560 texture coords

o Bench
g Bench
usemtl wire_149149149
s off
f 1/1/1 2/2/2 3/3/3 4/4/4 
f 5/5/5 6/6/6 2/7/2 1/8/1 
f 5/9/5 7/10/7 8/11/8 9/12/5 
f 10/13/9 6/14/6 11/15/6 12/16/10 
f 7/17/7 10/18/9 12/19/10 8/20/8 
f 9/21/5 11/22/6 6/6/6 5/5/5 
f 1/23/1 4/24/4 7/10/7 5/9/5 
f 3/25/3 2/26/2 6/14/6 10/13/9 
f 4/24/4 13/27/4 14/28/11 7/10/7 
f 3/3/3 15/29/3 13/30/4 4/4/4 
f 10/13/9 16/31/12 15/32/3 3/25/3 
f 7/33/7 14/34/11 16/35/12 10/36/9 
f 13/27/4 17/37/4 18/38/11 14/28/11 
f 15/29/3 19/39/3 17/40/4 13/30/4 
f 16/31/12 20/41/12 19/42/3 15/32/3 
f 14/34/11 18/43/11 20/44/12 16/35/12 
f 17/37/4 21/45/4 22/46/11 18/38/11 
f 19/39/3 23/47/13 21/48/4 17/40/4 
f 20/41/12 24/49/14 23/50/13 19/42/3 
f 18/43/11 22/51/11 24/52/14 20/44/12 
f 25/53/15 26/54/16 22/46/11 21/45/4 
f 27/55/17 25/56/15 21/48/4 23/47/13 
f 28/57/12 29/58/3 30/59/2 31/60/18 
f 26/61/16 32/62/19 24/52/14 22/51/11 
f 27/63/17 33/64/20 34/65/21 32/66/19 
f 23/47/13 35/67/22 33/68/20 27/55/17 
f 24/69/14 36/70/23 35/71/22 23/72/13 
f 32/62/19 34/73/21 36/74/23 24/52/14 
f 33/64/20 37/75/20 38/76/21 34/65/21 
f 35/67/22 39/77/22 37/78/20 33/68/20 
f 36/70/23 40/79/23 39/80/22 35/71/22 
f 34/73/21 38/81/21 40/82/23 36/74/23 
f 37/75/20 41/83/24 42/84/25 38/76/21 
f 39/77/22 43/85/22 41/86/24 37/78/20 
f 40/79/23 44/87/23 43/88/22 39/80/22 
f 38/81/21 42/89/25 44/90/23 40/82/23 
f 45/91/26 46/92/27 47/93/21 48/94/20 
f 30/95/2 29/96/3 41/86/24 43/85/22 
f 31/97/18 30/98/2 43/88/22 44/87/23 
f 28/99/12 31/100/18 44/90/23 42/89/25 
f 28/57/12 49/101/12 50/102/3 29/58/3 
f 42/89/25 51/103/11 49/104/12 28/99/12 
f 41/105/24 52/106/4 51/107/11 42/108/25 
f 29/96/3 50/109/3 52/110/4 41/86/24 
f 49/101/12 53/111/12 54/112/3 50/102/3 
f 51/103/11 55/113/11 53/114/12 49/104/12 
f 52/106/4 56/115/4 55/116/11 51/107/11 
f 50/109/3 54/117/3 56/118/4 52/110/4 
f 53/111/12 57/119/12 58/120/3 54/112/3 
f 55/113/11 59/121/28 57/122/12 53/114/12 
f 56/115/4 60/123/29 59/124/28 55/116/11 
f 54/117/3 58/125/3 60/126/29 56/118/4 
f 46/127/27 45/128/26 58/120/3 57/119/12 
f 47/129/21 46/130/27 57/122/12 59/121/28 
f 61/131/30 62/132/31 63/133/32 64/134/33 
f 45/135/26 48/136/20 60/126/29 58/125/3 
f 47/93/21 65/137/21 66/138/20 48/94/20 
f 59/121/28 67/139/23 65/140/21 47/129/21 
f 60/141/29 68/142/22 67/143/23 59/144/28 
f 48/136/20 66/145/20 68/146/22 60/126/29 
f 65/137/21 69/147/21 70/148/20 66/138/20 
f 67/139/23 71/149/23 69/150/21 65/140/21 
f 68/142/22 72/151/22 71/152/23 67/143/23 
f 66/145/20 70/153/20 72/154/22 68/146/22 
f 69/147/21 73/155/21 74/156/20 70/148/20 
f 71/149/23 75/157/34 73/158/21 69/150/21 
f 72/151/22 76/159/35 75/160/34 71/152/23 
f 70/153/20 74/161/20 76/162/35 72/154/22 
f 62/163/31 61/164/30 74/156/20 73/155/21 
f 63/165/32 62/166/31 73/158/21 75/157/34 
f 61/167/30 64/168/33 76/162/35 74/161/20 
f 76/169/35 27/170/17 32/171/19 75/172/34 
f 63/133/32 26/54/16 25/53/15 64/134/33 
f 75/157/34 32/62/19 26/61/16 63/165/32 
f 64/168/33 25/56/15 27/55/17 76/162/35 
f 77/173/12 78/174/18 79/175/36 80/176/11 
f 78/177/18 81/178/6 82/179/5 79/180/36 
f 8/11/8 83/181/37 82/182/5 9/12/5 
f 11/15/6 81/183/6 84/184/38 12/16/10 
f 12/19/10 84/185/38 83/186/37 8/20/8 
f 81/178/6 11/22/6 9/21/5 82/179/5 
f 83/181/37 80/187/11 79/188/36 82/182/5 
f 81/183/6 78/189/18 77/190/12 84/184/38 
f 85/191/4 86/192/11 80/187/11 83/181/37 
f 86/193/11 87/194/12 77/173/12 80/176/11 
f 87/195/12 88/196/3 84/184/38 77/190/12 
f 88/197/3 85/198/4 83/199/37 84/200/38 
f 89/201/4 90/202/11 86/192/11 85/191/4 
f 90/203/11 91/204/12 87/194/12 86/193/11 
f 91/205/12 92/206/3 88/196/3 87/195/12 
f 92/207/3 89/208/4 85/198/4 88/197/3 
f 93/209/4 94/210/11 90/202/11 89/201/4 
f 94/211/11 95/212/14 91/204/12 90/203/11 
f 95/213/14 96/214/13 92/206/3 91/205/12 
f 96/215/13 93/216/4 89/208/4 92/207/3 
f 93/209/4 97/217/15 98/218/16 94/210/11 
f 94/211/11 98/219/16 99/220/19 95/212/14 
f 100/221/18 101/222/12 102/223/3 103/224/2 
f 96/215/13 104/225/17 97/226/15 93/216/4 
f 105/227/20 106/228/21 99/229/19 104/230/17 
f 106/231/21 107/232/23 95/212/14 99/220/19 
f 107/233/23 108/234/22 96/235/13 95/236/14 
f 108/237/22 105/238/20 104/225/17 96/215/13 
f 109/239/20 110/240/21 106/228/21 105/227/20 
f 110/241/21 111/242/23 107/232/23 106/231/21 
f 111/243/23 112/244/22 108/234/22 107/233/23 
f 112/245/22 109/246/20 105/238/20 108/237/22 
f 113/247/24 114/248/25 110/240/21 109/239/20 
f 114/249/25 115/250/23 111/242/23 110/241/21 
f 115/251/23 116/252/22 112/244/22 111/243/23 
f 116/253/22 113/254/24 109/246/20 112/245/22 
f 117/255/20 118/256/26 119/257/27 120/258/21 
f 114/249/25 101/259/12 100/260/18 115/250/23 
f 115/251/23 100/261/18 103/262/2 116/252/22 
f 116/253/22 103/263/2 102/264/3 113/254/24 
f 121/265/12 122/266/3 102/223/3 101/222/12 
f 122/267/3 123/268/4 113/254/24 102/264/3 
f 123/269/4 124/270/11 114/271/25 113/272/24 
f 124/273/11 121/274/12 101/259/12 114/249/25 
f 125/275/12 126/276/3 122/266/3 121/265/12 
f 126/277/3 127/278/4 123/268/4 122/267/3 
f 127/279/4 128/280/11 124/270/11 123/269/4 
f 128/281/11 125/282/12 121/274/12 124/273/11 
f 129/283/12 130/284/3 126/276/3 125/275/12 
f 130/285/3 131/286/29 127/278/4 126/277/3 
f 131/287/29 132/288/28 128/280/11 127/279/4 
f 132/289/28 129/290/12 125/282/12 128/281/11 
f 129/283/12 119/291/27 118/292/26 130/284/3 
f 130/285/3 118/293/26 117/294/20 131/286/29 
f 133/295/33 134/296/30 135/297/31 136/298/32 
f 132/289/28 120/299/21 119/300/27 129/290/12 
f 137/301/21 138/302/20 117/255/20 120/258/21 
f 138/303/20 139/304/22 131/286/29 117/294/20 
f 139/305/22 140/306/23 132/307/28 131/308/29 
f 140/309/23 137/310/21 120/299/21 132/289/28 
f 141/311/21 142/312/20 138/302/20 137/301/21 
f 142/313/20 143/314/22 139/304/22 138/303/20 
f 143/315/22 144/316/23 140/306/23 139/305/22 
f 144/317/23 141/318/21 137/310/21 140/309/23 
f 145/319/21 146/320/20 142/312/20 141/311/21 
f 146/321/20 147/322/35 143/314/22 142/313/20 
f 147/323/35 148/324/34 144/316/23 143/315/22 
f 148/325/34 145/326/21 141/318/21 144/317/23 
f 145/319/21 135/327/31 134/328/30 146/320/20 
f 146/321/20 134/329/30 133/330/33 147/322/35 
f 148/325/34 136/331/32 135/332/31 145/326/21 
f 104/333/17 99/334/19 148/335/34 147/336/35 
f 98/218/16 97/217/15 133/295/33 136/298/32 
f 97/226/15 104/225/17 147/322/35 133/330/33 
f 99/220/19 98/219/16 136/331/32 148/325/34 
f 149/337/8 150/338/30 151/339/26 152/340/10 
f 153/341/2 154/342/1 155/343/5 156/344/6 
f 151/345/26 153/346/2 156/347/6 152/348/10 
f 150/349/30 154/350/1 153/351/2 151/352/26 
f 149/353/8 155/354/5 154/355/1 150/356/30 
f 157/357/27 158/358/18 159/359/36 160/360/31 
f 152/340/10 157/361/27 160/362/31 149/337/8 
f 156/347/6 158/363/18 157/364/27 152/348/10 
f 155/343/5 159/365/36 158/366/18 156/344/6 
f 149/353/8 160/367/31 159/368/36 155/354/5 
f 161/369/8 162/370/30 163/371/26 164/372/10 
f 165/373/2 166/374/1 167/375/5 168/376/6 
f 163/377/26 165/378/2 168/379/6 164/380/10 
f 162/381/30 166/382/1 165/383/2 163/384/26 
f 161/385/8 167/386/5 166/387/1 162/388/30 
f 169/389/27 170/390/18 171/391/36 172/392/31 
f 164/372/10 169/393/27 172/394/31 161/369/8 
f 168/379/6 170/395/18 169/396/27 164/380/10 
f 167/375/5 171/397/36 170/398/18 168/376/6 
f 161/385/8 172/399/31 171/400/36 167/386/5 
f 173/401/8 174/402/30 175/403/26 176/404/10 
f 177/405/2 178/406/1 179/407/5 180/408/6 
f 175/409/26 177/410/2 180/411/6 176/412/10 
f 174/413/30 178/414/1 177/415/2 175/416/26 
f 173/417/8 179/418/5 178/419/1 174/420/30 
f 181/421/27 182/422/18 183/423/36 184/424/31 
f 176/404/10 181/425/27 184/426/31 173/401/8 
f 180/411/6 182/427/18 181/428/27 176/412/10 
f 179/407/5 183/429/36 182/430/18 180/408/6 
f 173/417/8 184/431/31 183/432/36 179/418/5 
f 185/433/8 186/434/30 187/435/39 188/436/10 
f 189/437/2 190/438/40 191/439/5 192/440/6 
f 187/441/39 189/442/2 192/443/6 188/444/10 
f 186/445/30 190/446/40 189/447/2 187/448/39 
f 185/449/8 191/450/5 190/451/40 186/452/30 
f 193/453/41 194/454/18 195/455/42 196/456/31 
f 188/436/10 193/457/41 196/458/31 185/433/8 
f 192/443/6 194/459/18 193/460/41 188/444/10 
f 191/439/5 195/461/42 194/462/18 192/440/6 
f 185/449/8 196/463/31 195/464/42 191/450/5 
f 197/465/8 198/466/30 199/467/26 200/468/10 
f 201/469/2 202/470/1 203/471/5 204/472/6 
f 199/473/26 201/474/2 204/475/6 200/476/10 
f 198/477/30 202/478/1 201/479/2 199/480/26 
f 197/481/8 203/482/5 202/483/1 198/484/30 
f 205/485/27 206/486/18 207/487/36 208/488/31 
f 200/468/10 205/489/27 208/490/31 197/465/8 
f 204/475/6 206/491/18 205/492/27 200/476/10 
f 203/471/5 207/493/36 206/494/18 204/472/6 
f 197/481/8 208/495/31 207/496/36 203/482/5 
f 209/497/8 210/498/30 211/499/26 212/500/10 
f 213/501/2 214/502/1 215/503/5 216/504/6 
f 211/505/26 213/506/2 216/507/6 212/508/10 
f 210/509/30 214/510/1 213/511/2 211/512/26 
f 209/513/8 215/514/5 214/515/1 210/516/30 
f 217/517/27 218/518/18 219/519/36 220/520/31 
f 212/500/10 217/521/27 220/522/31 209/497/8 
f 216/507/6 218/523/18 217/524/27 212/508/10 
f 215/503/5 219/525/36 218/526/18 216/504/6 
f 209/513/8 220/527/31 219/528/36 215/514/5 
f 221/529/8 222/530/30 223/531/26 224/532/10 
f 225/533/2 226/534/1 227/535/5 228/536/6 
f 223/537/26 225/538/2 228/539/6 224/540/10 
f 222/541/30 226/542/1 225/543/2 223/544/26 
f 221/545/8 227/546/5 226/547/1 222/548/30 
f 229/549/27 230/550/18 231/551/36 232/552/31 
f 224/532/10 229/553/27 232/554/31 221/529/8 
f 228/539/6 230/555/18 229/556/27 224/540/10 
f 227/535/5 231/557/36 230/558/18 228/536/6 
f 221/545/8 232/559/31 231/560/36 227/546/5 
# 220 polygons

